{"title":"The Wildest Dream: Conquest of Everest 720p x264 aac mp4 bbc sub","uid":6615883,"size":1637787080,"categoryP":"video","categoryS":"hd___tv_shows","magnet":"?xt=urn:btih:11e0e064cece7541884813e56bd0caf7c1f6d045&amp;dn=The+Wildest+Dream%3A+Conquest+of+Everest+720p+x264+aac+mp4+bbc+sub&amp;tr=udp%3A%2F%2Ftracker.openbittorrent.com%3A80&amp;tr=udp%3A%2F%2Fopen.demonii.com%3A1337&amp;tr=udp%3A%2F%2Ftracker.coppersurfer.tk%3A6969&amp;tr=udp%3A%2F%2Fexodus.desync.com%3A6969","seeders":4,"leechers":0,"uploader":"aularon","files":-1,"time":1313777970,"description":"The Wildest Dream: Conquest of Everest 720p x264 aac mp4 bbc subtitles [aularon]\n\n- - -\nSynopsis\n- - -\nGeorge Mallory was obsessed with becoming the first person to conquer the untouched Mount Everest.\n\nHe was last seen 800 feet below the summit in 1924 as the clouds rolled in and he disappeared into legend. His death stunned the world.\n\n\n- - -\nURL\n- - -\n  &lt;a href=&quot;\nhttp://www.bbc.co.uk/programmes/b013pr15&quot; rel=&quot;nofollow&quot; target=&quot;_NEW&quot;&gt;\nhttp://www.bbc.co.uk/programmes/b013pr15&lt;/a&gt;\n\n\n- - -\nTechnical Details\n- - -\nGeneral\nComplete name                    : BBC.The.Wildest.Dream.Conquest.of.Everest/The_Wildest_Dream_-_The_Wildest_Dream_Conquest_of_Everest_b013pr15_default.mp4\nFormat                           : MPEG-4\nFormat profile                   : Base Media\nCodec ID                         : isom\nFile size                        : 1.53 GiB\nDuration                         : 1h 28mn\nOverall bit rate                 : 2 474 Kbps\nMovie name                       : The Wildest Dream: Conquest of Everest\nAlbum                            : The Wildest Dream\nPerformer                        : The Wildest Dream\nGenre                            : Factual\nRecorded date                    : 2011-08-17T21:00:00+01:00\nWriting application              : Lavf53.6.0\nCover                            : Yes\nComment                          : Recorded using get_iplayer, by Aularon.\nrtng                             : 2\nstik                             : 1\ndesc                             : George Mallory was obsessed with becoming the first person to conquer Mount Everest, but was last seen 800 feet below the summit in 1924, before disappearing into legend.\ntvnn                             : BBC HD\ntvsh                             : The Wildest Dream\ntven                             : b013pr15\ncatg                             : Factual\n\nVideo\nID                               : 1\nFormat                           : AVC\nFormat/Info                      : Advanced Video Codec\nFormat profile                   : &lt;a class=&quot;__cf_email__&quot; href=&quot;/cdn-cgi/l/email-protection&quot; data-cfemail=&quot;054d6c626d4549312b34&quot;&gt;[email&amp;#160;protected]&lt;/a&gt;&lt;script cf-hash='f9e31' type=&quot;text/javascript&quot;&gt;\n/* &lt;![CDATA[ */!function(){try{var t=&quot;currentScript&quot;in document?document.currentScript:function(){for(var t=document.getElementsByTagName(&quot;script&quot;),e=t.length;e--;)if(t[e].getAttribute(&quot;cf-hash&quot;))return t[e]}();if(t&amp;&amp;t.previousSibling){var e,r,n,i,c=t.previousSibling,a=c.getAttribute(&quot;data-cfemail&quot;);if(a){for(e=&quot;&quot;,r=parseInt(a.substr(0,2),16),n=2;a.length-n;n+=2)i=parseInt(a.substr(n,2),16)^r,e+=String.fromCharCode(i);e=document.createTextNode(e),c.parentNode.replaceChild(e,c)}}}catch(u){}}();/* ]]&gt; */&lt;/script&gt;\nFormat settings, CABAC           : Yes\nFormat settings, ReFrames        : 6 frames\nCodec ID                         : avc1\nCodec ID/Info                    : Advanced Video Coding\nDuration                         : 1h 28mn\nBit rate mode                    : Variable\nBit rate                         : 2 373 Kbps\nMaximum bit rate                 : 3 500 Kbps\nWidth                            : 1 280 pixels\nHeight                           : 720 pixels\nDisplay aspect ratio             : 16:9\nFrame rate mode                  : Constant\nFrame rate                       : 25.000 fps\nStandard                         : PAL\nColor space                      : YUV\nChroma subsampling               : 4:2:0\nBit depth                        : 8 bits\nScan type                        : Progressive\nBits/(Pixel*Frame)               : 0.103\nStream size                      : 1.46 GiB (96%)\n\nAudio\nID                               : 2\nFormat                           : AAC\nFormat/Info                      : Advanced Audio Codec\nFormat profile                   : HE-AAC / LC\nCodec ID                         : 40\nDuration                         : 1h 28mn\nBit rate mode                    : Constant\nBit rate                         : 96.0 Kbps\nChannel(s)                       : 2 channels\nChannel positions                : Front: L R\nSampling rate                    : 48.0 KHz / 24.0 KHz\nCompression mode                 : Lossy\nStream size                      : 59.8 MiB (4%)\n","torrent":{"xt":"urn:btih:11e0e064cece7541884813e56bd0caf7c1f6d045","amp;dn":"The+Wildest+Dream%3A+Conquest+of+Everest+720p+x264+aac+mp4+bbc+sub","amp;tr":["udp%3A%2F%2Ftracker.openbittorrent.com%3A80","udp%3A%2F%2Fopen.demonii.com%3A1337","udp%3A%2F%2Ftracker.coppersurfer.tk%3A6969","udp%3A%2F%2Fexodus.desync.com%3A6969"],"infoHash":"11e0e064cece7541884813e56bd0caf7c1f6d045","infoHashBuffer":{"type":"Buffer","data":[17,224,224,100,206,206,117,65,136,72,19,229,107,208,202,247,193,246,208,69]},"announce":[],"urlList":[]}}